<?xml version="1.0" encoding="UTF-8"?>
<svg version="1.1" xmlns="http://www.w3.org/2000/svg" width="1616" height="390">
<path d="M0 0 C9.67043978 7.68638299 15.67856068 17.07010157 18.5703125 29.04296875 C19.76720336 44.29166916 16.78213031 55.28227563 7.69140625 67.5859375 C0.2768655 76.17478857 -11.1954952 82.38600823 -22.4296875 84.04296875 C-33.03783575 84.71702817 -42.53503844 84.3807829 -52.4296875 80.04296875 C-53.0896875 79.38296875 -53.7496875 78.72296875 -54.4296875 78.04296875 C-52.97949219 77.69685547 -52.97949219 77.69685547 -51.5 77.34375 C-37.36336127 73.85555943 -23.80354273 68.68019099 -15.8046875 55.66796875 C-13.94716068 52.5308821 -13.94716068 52.5308821 -13.4296875 49.04296875 C-14.0278125 49.88859375 -14.6259375 50.73421875 -15.2421875 51.60546875 C-23.99899279 62.06430098 -39.9845654 68.24630752 -53.1796875 69.85546875 C-59.96689098 70.30624793 -66.57128503 69.77327898 -72.2734375 65.73828125 C-79.6534556 58.16999738 -81.91196754 47.63097179 -81.9921875 37.41796875 C-81.7888328 24.50367416 -77.65587151 15.73611656 -68.9296875 6.35546875 C-68.1046875 5.59234375 -67.2796875 4.82921875 -66.4296875 4.04296875 C-65.5840625 3.23859375 -64.7384375 2.43421875 -63.8671875 1.60546875 C-45.77804653 -13.16499261 -18.85215732 -12.8887198 0 0 Z M-54.4296875 12.04296875 C-54.7596875 12.70296875 -55.0896875 13.36296875 -55.4296875 14.04296875 C-54.54216797 13.95595703 -54.54216797 13.95595703 -53.63671875 13.8671875 C-49.19082442 13.61334362 -47.13809684 13.50035734 -43.4921875 16.29296875 C-40.21406944 20.66379283 -39.17338003 23.27805496 -39.3046875 28.79296875 C-39.32273437 29.7778125 -39.34078125 30.76265625 -39.359375 31.77734375 C-39.38257813 32.525 -39.40578125 33.27265625 -39.4296875 34.04296875 C-35.70566593 31.39695342 -33.43696818 29.57573181 -32.4296875 25.04296875 C-32.2784685 20.15948459 -32.67351881 17.00350735 -35.7421875 13.10546875 C-42.24707332 8.11334707 -47.17795459 7.65820002 -54.4296875 12.04296875 Z " fill="#000000" transform="translate(1407.4296875,70.95703125)"/>
<path d="M0 0 C27.39 0 54.78 0 83 0 C84.80607057 1.80607057 84.14446732 4.57071603 84.15821838 7.00465393 C84.1680072 8.31022247 84.17779602 9.61579102 84.18788147 10.96092224 C84.19378645 12.4212948 84.19959684 13.88166774 84.20532227 15.34204102 C84.21489528 16.86926543 84.22490501 18.39648716 84.23532104 19.92370605 C84.2624387 24.08258801 84.28341098 28.2414814 84.30332303 32.40040326 C84.32514042 36.74196806 84.35254982 41.08349737 84.37937927 45.42503357 C84.42936377 53.65211008 84.47428116 61.87920624 84.51740164 70.10632128 C84.56672492 79.47015585 84.62166119 88.83395481 84.67708123 98.19775498 C84.79098962 117.46513695 84.89780927 136.7325525 85 156 C87.83674116 153.30545184 89.37678267 150.64329852 91.15234375 147.13671875 C91.44872742 146.55647949 91.74511108 145.97624023 92.05047607 145.37841797 C92.68687106 144.13170127 93.32079682 142.88372162 93.95248413 141.63461304 C95.61727906 138.34375854 97.30075607 135.06250395 98.984375 131.78125 C99.49148262 130.79181648 99.49148262 130.79181648 100.00883484 129.78239441 C103.59524345 122.80504483 107.34737074 115.92125291 111.14233398 109.05541992 C111.59423096 108.23662354 112.04612793 107.41782715 112.51171875 106.57421875 C112.89803467 105.87901123 113.28435059 105.18380371 113.68237305 104.4675293 C115.52582166 101.01529007 117.24978524 97.50042951 119 94 C151.67 94 184.34 94 218 94 C216.40595409 97.98511478 215.32094744 100.17381479 212.796875 103.4140625 C212.15314941 104.24808594 211.50942383 105.08210938 210.84619141 105.94140625 C209.80857666 107.26978516 209.80857666 107.26978516 208.75 108.625 C207.29296183 110.51201082 205.8372592 112.40005354 204.3828125 114.2890625 C203.28114746 115.71847168 203.28114746 115.71847168 202.15722656 117.17675781 C198.9228677 121.40968287 195.7701761 125.70061477 192.625 130 C187.928038 136.40925222 183.15639415 142.74767264 178.29296875 149.03125 C170.96199017 158.52280659 163.93257514 168.21624052 157 178 C160.04984199 183.70056885 163.66791797 188.6346661 167.6875 193.6875 C168.95519531 195.29887509 170.22212372 196.9108538 171.48828125 198.5234375 C172.09752441 199.2978418 172.70676758 200.07224609 173.33447266 200.87011719 C176.10524038 204.41338567 178.78605605 208.02175775 181.47265625 211.62890625 C184.88400749 216.19596894 188.35376803 220.71879925 191.8125 225.25 C198.10079498 233.49439371 204.36787537 241.75319016 210.55908203 250.07080078 C212.09304435 252.12457413 213.63827247 254.16960705 215.18359375 256.21484375 C216.20611194 257.58044264 217.22826041 258.94631847 218.25 260.3125 C218.72864502 260.94140137 219.20729004 261.57030273 219.70043945 262.21826172 C223 266.65891774 223 266.65891774 223 270 C209.93516946 270.20855009 196.87073492 270.3684552 183.80457878 270.46630955 C177.73728514 270.51327616 171.67113032 270.57697504 165.60449219 270.67895508 C159.74942979 270.77676231 153.89546241 270.8305616 148.03964615 270.85389519 C145.8059782 270.8705223 143.5723701 270.90299305 141.33916855 270.95157051 C138.20900911 271.01694949 135.08336932 271.02590153 131.95263672 271.02172852 C131.02978378 271.054086 130.10693085 271.08644348 129.15611267 271.11978149 C126.48885931 271.08132436 124.49906955 270.94217374 122 270 C119.37704705 267.29542441 117.69674311 264.34299091 116 261 C115.37457967 259.86679746 115.37457967 259.86679746 114.73652458 258.71070194 C113.5715697 256.59893979 112.47061828 254.46099886 111.375 252.3125 C110.51323957 250.64895088 109.64988933 248.98622459 108.78515625 247.32421875 C108.11057373 246.02750244 108.11057373 246.02750244 107.42236328 244.70458984 C104.93895574 239.98244965 102.3752716 235.30440731 99.8125 230.625 C98.80337661 228.78125482 97.79426177 226.93750496 96.78515625 225.09375 C96.31094238 224.2275 95.83672852 223.36125 95.34814453 222.46875 C92.53991195 217.32625673 89.76741883 212.16454922 87 207 C86.34 207 85.68 207 85 207 C84.67 227.79 84.34 248.58 84 270 C56.28 270 28.56 270 0 270 C0 180.9 0 91.8 0 0 Z " fill="#000000" transform="translate(204,69)"/>
<path d="M0 0 C0.77251602 0.00359528 1.54503204 0.00719055 2.34095764 0.01089478 C3.55549622 0.01067574 3.55549622 0.01067574 4.79457092 0.01045227 C7.48380671 0.01115163 10.17297412 0.01894507 12.86219788 0.02676392 C14.72164878 0.02862802 16.58110018 0.03005196 18.44055176 0.03105164 C23.34458258 0.03487746 28.24858398 0.04470829 33.15260315 0.05575562 C38.15280255 0.06596836 43.15300669 0.07054896 48.1532135 0.07559204 C57.97158583 0.0863305 67.78993629 0.10340769 77.60829163 0.12442017 C78.80516393 2.51816477 78.74594583 4.01946679 78.76651001 6.69281006 C78.77629883 7.65477295 78.78608765 8.61673584 78.7961731 9.60784912 C78.80192856 10.66664276 78.80768402 11.7254364 78.81361389 12.8163147 C78.82351349 13.92851379 78.83341309 15.04071289 78.84361267 16.18661499 C78.87529618 19.87679895 78.90001218 23.5669958 78.92469788 27.25723267 C78.94526149 29.81028587 78.96625779 32.36333562 78.9876709 34.91638184 C79.03729705 40.95825723 79.08254646 47.0001502 79.12569326 53.04207408 C79.1750523 59.91989294 79.22997536 66.7976638 79.28537285 73.67543626 C79.39921689 87.82505279 79.50605064 101.97471538 79.60829163 116.12442017 C80.72325012 114.89247925 80.72325012 114.89247925 81.86073303 113.63565063 C82.85198555 112.54585941 83.84336604 111.45618457 84.83485413 110.36660767 C85.32284485 109.82673218 85.81083557 109.28685669 86.31361389 108.73062134 C98.43257641 95.43722302 113.51732077 89.02202498 131.47157288 87.87832642 C150.54929437 87.54704831 167.18331373 92.28328347 181.35829163 105.43692017 C199.16618302 124.20853274 198.05482865 150.61605095 197.93641663 174.65567017 C197.93177689 177.38666772 197.93138164 180.1176623 197.93074036 182.84866333 C197.9270767 188.53357462 197.91224094 194.21836303 197.88954163 199.90322876 C197.86044196 207.20599107 197.8502929 214.50865603 197.84585953 221.81147003 C197.84189008 228.10746643 197.82940698 234.40344162 197.81551266 240.69942284 C197.81141424 242.71934842 197.80848892 244.73927326 197.80571747 246.75920105 C197.79888699 250.50272544 197.78527574 254.24615888 197.76942444 257.98965454 C197.76830658 259.10949234 197.76718872 260.22933014 197.76603699 261.38310242 C197.76032684 262.39485031 197.7546167 263.40659821 197.74873352 264.44900513 C197.74575886 265.33304771 197.74278419 266.2170903 197.73971939 267.12792206 C197.60829163 269.12442017 197.60829163 269.12442017 196.60829163 270.12442017 C194.02728407 270.22481627 191.47301266 270.26059286 188.89149475 270.2538147 C187.67936562 270.25644318 187.67936562 270.25644318 186.44274902 270.25912476 C183.75832503 270.26354393 181.07396635 270.26060506 178.38954163 270.25723267 C176.53248583 270.25790569 174.67543012 270.2588757 172.81837463 270.26013184 C168.92102726 270.2616089 165.02370276 270.25945399 161.12635803 270.25479126 C156.11894663 270.24909397 151.11158882 270.25237293 146.10417938 270.25836372 C142.26789442 270.26196912 138.43162226 270.26083085 134.59533691 270.25823593 C132.74846388 270.2575666 130.90158971 270.25839529 129.05471802 270.26071548 C126.47814331 270.26324165 123.90165662 270.25940194 121.3250885 270.2538147 C120.55414352 270.25583893 119.78319855 270.25786316 118.9888916 270.25994873 C113.72255418 270.23868272 113.72255418 270.23868272 112.60829163 269.12442017 C112.50420261 266.10829415 112.46468318 263.11431487 112.46644592 260.0975647 C112.4629715 259.14948441 112.45949707 258.20140411 112.45591736 257.22459412 C112.4485433 255.15657264 112.44320676 253.08854315 112.43962669 251.02051163 C112.43247468 247.74086316 112.41681424 244.4613655 112.39828491 241.1817627 C112.3457798 231.85342575 112.29790354 222.52516706 112.28236389 213.19668579 C112.27224366 207.49600035 112.2428074 201.79568772 112.20104408 196.09514999 C112.18877703 193.92722274 112.18360493 191.75924269 112.18584251 189.59128189 C112.77429286 173.73336276 112.77429286 173.73336276 107.60829163 159.12442017 C103.31083782 155.39305282 99.1922066 154.98305523 93.60829163 155.12442017 C88.84125438 156.71343258 86.31542813 158.9236911 83.60829163 163.12442017 C80.11417526 170.67420731 79.45993391 178.01356056 79.4188385 186.23501587 C79.4105452 187.13161423 79.40225189 188.02821259 79.39370728 188.95198059 C79.37636842 190.89005628 79.36118505 192.82815222 79.34793091 194.76626015 C79.32684114 197.82932025 79.29982773 200.89227762 79.27125549 203.95527649 C79.20155601 211.5560594 79.14188096 219.15691469 79.08222961 226.75778198 C79.03138919 233.1927106 78.97662198 239.62758143 78.91641235 246.06242943 C78.88976224 249.08765851 78.86900068 252.11289284 78.84840393 255.13816833 C78.8318113 256.97904727 78.81494039 258.81992372 78.79774475 260.66079712 C78.79356033 261.50804352 78.78937592 262.35528992 78.7850647 263.22821045 C78.72214657 269.01056523 78.72214657 269.01056523 77.60829163 270.12442017 C75.02728407 270.22481627 72.47301266 270.26059286 69.89149475 270.2538147 C68.67936562 270.25644318 68.67936562 270.25644318 67.44274902 270.25912476 C64.75832503 270.26354393 62.07396635 270.26060506 59.38954163 270.25723267 C57.53248583 270.25790569 55.67543012 270.2588757 53.81837463 270.26013184 C49.92102726 270.2616089 46.02370276 270.25945399 42.12635803 270.25479126 C37.11894663 270.24909397 32.11158882 270.25237293 27.10417938 270.25836372 C23.26789442 270.26196912 19.43162226 270.26083085 15.59533691 270.25823593 C13.74846388 270.2575666 11.90158971 270.25839529 10.05471802 270.26071548 C7.47814331 270.26324165 4.90165662 270.25940194 2.3250885 270.2538147 C1.55414352 270.25583893 0.78319855 270.25786316 -0.0111084 270.25994873 C-5.27744582 270.23868272 -5.27744582 270.23868272 -6.39170837 269.12442017 C-6.48922114 267.69188572 -6.51726285 266.25455976 -6.51754951 264.81871033 C-6.52015726 263.88378596 -6.52276501 262.9488616 -6.52545178 261.98560619 C-6.52322106 260.94642701 -6.52099034 259.90724783 -6.51869202 258.83657837 C-6.52025201 257.74203748 -6.521812 256.64749659 -6.52341926 255.51978779 C-6.52743443 251.82157897 -6.52423762 248.1234106 -6.52110291 244.42520142 C-6.52245672 241.78631468 -6.52420011 239.14743081 -6.52641296 236.50854492 C-6.53087135 230.06668601 -6.52989389 223.62483872 -6.52700032 217.18297935 C-6.52474656 211.94988646 -6.52443365 206.71679684 -6.52552414 201.48370361 C-6.52567737 200.74033101 -6.52583061 199.99695841 -6.52598848 199.23105937 C-6.52630819 197.72115064 -6.5266324 196.2112419 -6.52696107 194.70133317 C-6.52981606 180.52612829 -6.52652854 166.35092987 -6.52116071 152.17572606 C-6.51669265 139.99944117 -6.51746858 127.82316582 -6.52207947 115.6468811 C-6.52742489 101.52414257 -6.52954137 87.40140971 -6.5264672 73.27867031 C-6.52614864 71.77415911 -6.52583427 70.26964792 -6.52552414 68.76513672 C-6.52536986 68.02479087 -6.52521559 67.28444502 -6.52505664 66.52166444 C-6.52419139 61.29180568 -6.52565453 56.06195049 -6.52800369 50.83209229 C-6.53080154 44.46302504 -6.53006376 38.09397012 -6.52472295 31.7249043 C-6.52208572 28.47218732 -6.521615 25.21949532 -6.5243721 21.9667778 C-6.52708049 18.44858491 -6.5237063 14.93045103 -6.51869202 11.41226196 C-6.52092274 10.37308278 -6.52315346 9.3339036 -6.52545178 8.26323414 C-6.52284403 7.32830977 -6.52023628 6.39338541 -6.51754951 5.43013 C-6.51738716 4.61693141 -6.51722481 3.80373281 -6.51705754 2.96589184 C-6.2448931 -1.03240453 -3.32800897 0.0065379 0 0 Z " fill="#000000" transform="translate(456.39170837402344,68.87557983398438)"/>
<path d="M0 0 C1.08628693 0.00303635 1.08628693 0.00303635 2.19451904 0.00613403 C3.3334964 0.00350555 3.3334964 0.00350555 4.4954834 0.00082397 C7.0175807 -0.00359473 9.53960847 -0.00065649 12.06170654 0.00271606 C13.80666111 0.00204303 15.55161558 0.00107301 17.29656982 -0.00018311 C20.95852549 -0.0016601 24.62045682 0.00049454 28.28240967 0.00515747 C32.98715147 0.01085476 37.69183622 0.00757577 42.39657593 0.00158501 C46.00124546 -0.00202055 49.60590136 -0.00088204 53.21057129 0.0017128 C54.94580085 0.00238208 56.68103163 0.0015536 58.41625977 -0.00076675 C60.83717142 -0.0032932 63.25798941 0.00054718 65.67889404 0.00613403 C66.40308533 0.0041098 67.12727661 0.00208557 67.87341309 0 C72.82244388 0.0212659 72.82244388 0.0212659 73.93670654 1.13552856 C74.03245964 2.6410403 74.05858841 4.15103886 74.05696106 5.65959167 C74.05902306 7.12571648 74.05902306 7.12571648 74.06112671 8.62145996 C74.0557338 10.24309555 74.0557338 10.24309555 74.05023193 11.89749146 C74.05037796 13.02905167 74.05052399 14.16061188 74.05067444 15.32646179 C74.04997473 19.08705527 74.04217965 22.84759993 74.03436279 26.60818481 C74.03249882 29.207504 74.03107482 31.80682353 74.03007507 34.40614319 C74.02663995 40.56141433 74.0187491 46.71666516 74.00872558 52.87192863 C73.99756348 59.87786202 73.99205375 66.88379623 73.98703015 73.88973629 C73.97656646 88.30500989 73.95896762 102.7202686 73.93670654 117.13552856 C76.80516518 114.2913096 79.53104108 111.46979845 82.06170654 108.32302856 C93.82689594 94.82616627 109.77019676 89.23052449 127.17108154 87.88552856 C143.15710685 87.54719999 158.11057339 91.41796943 170.93670654 101.13552856 C171.96795654 101.87802856 172.99920654 102.62052856 174.06170654 103.38552856 C186.54336525 115.32450645 191.46900595 132.05119985 192.02887344 148.91104126 C192.0660889 152.08523816 192.07185781 155.2579926 192.06610107 158.43240356 C192.06872955 160.23149925 192.06872955 160.23149925 192.07141113 162.06694031 C192.07503715 165.32878108 192.07421791 168.59058072 192.07103205 171.85242081 C192.06848684 175.27255586 192.07085155 178.69268832 192.07241821 182.11282349 C192.07423165 187.84549447 192.07185326 193.57815252 192.06707764 199.31082153 C192.0616158 205.94397064 192.06341485 212.57708911 192.06890404 219.2102375 C192.073434 224.91230088 192.07408693 230.61435501 192.07146537 236.3164196 C192.06990462 239.71954731 192.06970377 243.12266057 192.07300186 246.52578735 C192.07552545 250.30848304 192.07169294 254.09111864 192.06610107 257.87380981 C192.06812531 259.00621597 192.07014954 260.13862213 192.07223511 261.30534363 C192.06941528 262.3286528 192.06659546 263.35196198 192.06369019 264.40628052 C192.06312465 265.74793022 192.06312465 265.74793022 192.06254768 267.11668396 C191.93670654 269.13552856 191.93670654 269.13552856 190.93670654 270.13552856 C188.3861918 270.23590587 185.86273476 270.27170344 183.31170654 270.2649231 C182.51337402 270.26667542 181.7150415 270.26842773 180.89251709 270.27023315 C178.24055845 270.27465224 175.58866592 270.27171349 172.93670654 270.26834106 C171.102071 270.26901409 169.26743553 270.2699841 167.43280029 270.27124023 C163.58253126 270.27271728 159.73228539 270.27056243 155.88201904 270.26589966 C150.93514157 270.26020237 145.98831835 270.26348133 141.04144287 270.26947212 C137.251481 270.27307755 133.46153208 270.27193924 129.67156982 270.26934433 C127.84702549 270.26867501 126.02247999 270.26950366 124.19793701 270.27182388 C121.65249493 270.2743501 119.10714195 270.27051026 116.56170654 270.2649231 C115.8001123 270.26694733 115.03851807 270.26897156 114.25384521 270.27105713 C109.05096912 270.24979114 109.05096912 270.24979114 107.93670654 269.13552856 C107.82730415 266.14474091 107.78246773 263.17620334 107.7789917 260.18460083 C107.77391098 259.24466782 107.76883026 258.3047348 107.76359558 257.33631897 C107.75286357 255.28630581 107.74425459 253.23628073 107.73747635 251.18625069 C107.72571239 247.93628407 107.70626235 244.68645185 107.68435669 241.4365387 C107.62268256 232.19277462 107.56882417 222.94902105 107.53533936 213.70510864 C107.51432389 208.05634653 107.47895549 202.4078239 107.43458176 196.75919914 C107.42046498 194.60998301 107.41170913 192.46072445 107.40852737 190.31146431 C107.4035862 187.29105979 107.38034244 184.27128282 107.35321045 181.25100708 C107.35621658 180.37215851 107.35922272 179.49330994 107.36231995 178.58782959 C107.26971662 171.60155403 106.30947996 164.40831948 102.12420654 158.63552856 C97.52098 155.47903037 93.32718425 154.60922423 87.88983154 155.55349731 C84.38727787 156.59725831 82.06758915 158.25219779 79.93670654 161.13552856 C75.70103357 169.90458955 74.79830471 178.68248375 74.73138428 188.28372192 C74.72148468 189.17231903 74.71158508 190.06091614 74.7013855 190.97644043 C74.66997783 193.89272462 74.64509565 196.80902505 74.62030029 199.72537231 C74.59971283 201.75561428 74.5787159 203.78585213 74.55732727 205.81608582 C74.50229165 211.14413102 74.45280117 216.47221372 74.40447998 221.80032349 C74.34526739 228.20149053 74.27914182 234.60258947 74.21417999 241.00370026 C74.11640356 250.71426789 74.02738814 260.42488041 73.93670654 270.13552856 C47.53670654 270.13552856 21.13670654 270.13552856 -6.06329346 270.13552856 C-6.08531959 235.88353947 -6.10379116 201.63155723 -6.11435879 167.37956319 C-6.11560956 163.34012911 -6.11690388 159.30069504 -6.1182251 155.26126099 C-6.11848741 154.45704792 -6.11874972 153.65283486 -6.11901998 152.8242517 C-6.12337688 139.78517434 -6.13126454 126.74610136 -6.14044625 113.70702661 C-6.14978223 100.33784535 -6.15534895 86.96866639 -6.15738195 73.599482 C-6.1587573 65.34323974 -6.1631085 57.08700988 -6.17120992 48.83077144 C-6.1764767 43.17696493 -6.17809791 37.52316489 -6.17679483 31.8693561 C-6.17615135 28.6024676 -6.17770862 25.33560556 -6.18249893 22.06871986 C-6.18742885 18.53514996 -6.18629435 15.00163436 -6.18354797 11.46806335 C-6.18646082 10.4243111 -6.18937366 9.38055885 -6.19237477 8.30517775 C-6.19038372 7.36615329 -6.18839267 6.42712883 -6.18634129 5.45964909 C-6.18672101 4.64287066 -6.18710073 3.82609223 -6.18749195 2.98456293 C-5.92611087 -0.90680948 -3.27919315 0.01409064 0 0 Z " fill="#000000" transform="translate(1104.0632934570313,68.86447143554688)"/>
<path d="M0 0 C1.35791016 1.59863281 1.35791016 1.59863281 2 4 C1.09449079 6.80458703 0.11344514 9.26279072 -1.12890625 11.9140625 C-1.4750145 12.68374359 -1.82112274 13.45342468 -2.17771912 14.24642944 C-3.29138426 16.71288005 -4.42674708 19.16865451 -5.5625 21.625 C-6.30152708 23.25587815 -7.03917294 24.88738295 -7.77539062 26.51953125 C-11.35673425 34.42636253 -15.01212563 42.28807388 -19 50 C-20.48886719 49.31164062 -20.48886719 49.31164062 -22.0078125 48.609375 C-36.47703991 42.02429755 -54.43002941 34.1397075 -70.5 39.4375 C-72.2325 40.2109375 -72.2325 40.2109375 -74 41 C-74.50169415 43.83073436 -74.50169415 43.83073436 -74 47 C-69.54774045 50.6604089 -65.20780179 52.03019003 -59.6640625 53.33203125 C-58.02472544 53.74278211 -56.38540302 54.15359138 -54.74609375 54.56445312 C-52.20264113 55.18682864 -49.65811432 55.804503 -47.11279297 56.41918945 C-28.16355931 61.02931557 -9.21461032 66.64334094 2.1484375 83.7265625 C9.45255092 96.63232681 9.47470915 112.95713402 6 127 C0.48915487 143.55333103 -9.735061 155.83417707 -25.17724609 164.08886719 C-59.49928199 181.24528802 -102.9980166 177.78500418 -138.49072266 166.18603516 C-148.16281725 162.91967226 -157.22717223 159.25650493 -166 154 C-161.1378653 142.09445318 -156.14414431 130.25086633 -151.0625 118.4375 C-150.37162934 116.82882562 -149.68087368 115.22010185 -148.99023438 113.61132812 C-147.32813967 109.74031834 -145.6645195 105.86996772 -144 102 C-134.57729333 106.68429387 -134.57729333 106.68429387 -129.98046875 109.09765625 C-115.19633075 116.79924068 -97.51470811 123.87003853 -80.625 119 C-79.75875 118.67 -78.8925 118.34 -78 118 C-77.52425281 113.43416699 -77.52425281 113.43416699 -79.18359375 109.3828125 C-81.47086875 107.64153218 -83.48553819 106.9968812 -86.25 106.1875 C-87.39984375 105.84976563 -88.5496875 105.51203125 -89.734375 105.1640625 C-93.96475839 103.98804063 -98.22058991 102.91487599 -102.47607422 101.83398438 C-121.41152105 97.00304525 -140.0709643 91.63181869 -151 74 C-155.18369488 65.49804696 -156.20252113 58.2520775 -156.25 48.875 C-156.270625 47.87984375 -156.29125 46.8846875 -156.3125 45.859375 C-156.3895895 31.0967349 -150.52326809 18.90999785 -140.39453125 8.27734375 C-107.76961241 -22.75092327 -37.06107117 -21.28921682 0 0 Z " fill="#000000" transform="translate(1068,171)"/>
<path d="M0 0 C26.73 0 53.46 0 81 0 C82.12504303 11.25043031 82.12504303 11.25043031 82.12698364 16.87884521 C82.13121338 18.78754395 82.13121338 18.78754395 82.13552856 20.73480225 C82.13358498 22.11193862 82.13153686 23.48907486 82.12939453 24.86621094 C82.13075223 26.34248904 82.13253423 27.81876681 82.13470459 29.29504395 C82.13923667 33.27874436 82.13750641 37.26241867 82.1343255 41.2461195 C82.13177807 45.43558506 82.13414623 49.62504851 82.13571167 53.81451416 C82.13752724 60.85193275 82.13514399 67.88934082 82.13037109 74.92675781 C82.12493813 83.03031566 82.12668658 91.13384831 82.1321975 99.23740554 C82.13675625 106.22375761 82.13736547 113.21010216 82.13475883 120.19645524 C82.1332101 124.35619153 82.13296321 128.51591604 82.13629532 132.67565155 C82.13921406 136.59258179 82.1371259 140.50948003 82.13140106 144.42640686 C82.13009434 145.85248512 82.13043137 147.27856614 82.13266373 148.70464325 C82.13545914 150.67416783 82.13130982 152.6436984 82.12698364 154.61322021 C82.1264181 156.25573069 82.1264181 156.25573069 82.12584114 157.93142319 C81.93928197 163.96307809 81.42994313 169.98079623 81 176 C54.27 176 27.54 176 0 176 C0 117.92 0 59.84 0 0 Z " fill="#000000" transform="translate(1335,163)"/>
<path d="M0 0 C27.06 0 54.12 0 82 0 C82.04898438 6.74179688 82.09796875 13.48359375 82.1484375 20.4296875 C82.1838439 24.71355622 82.21981541 28.99740539 82.2578125 33.28125 C82.31800273 40.07321297 82.37615732 46.86514874 82.421875 53.65722656 C82.45888561 59.13622369 82.50528766 64.61506977 82.55806351 70.09393692 C82.57652389 72.17895978 82.59166231 74.26401491 82.60334396 76.34908676 C82.62035016 79.28089449 82.64941852 82.21236254 82.68115234 85.14404297 C82.68331253 85.99641037 82.68547272 86.84877777 82.68769836 87.72697449 C82.78606241 94.89131141 83.26916962 103.7164962 87 110 C90.85757333 111.96006428 94.20330841 112.324805 98.5 112.375 C99.6034375 112.40335937 100.706875 112.43171875 101.84375 112.4609375 C105.82383347 111.87968769 107.27690316 110.95623869 110 108 C112.82077185 101.83859099 113.43907632 96.7430655 113.41650391 90.01977539 C113.42508926 89.05460999 113.43367462 88.08944458 113.44252014 87.09503174 C113.46746161 83.92916438 113.47194724 80.76361263 113.4765625 77.59765625 C113.49087881 75.39187163 113.50663696 73.18609594 113.52377319 70.98033142 C113.56553016 65.19234989 113.59059605 59.40442378 113.61126709 53.61633301 C113.64716243 44.32725819 113.70791168 35.03831957 113.76975632 25.74938774 C113.78889945 22.50032973 113.80058808 19.25130837 113.81118774 16.00221252 C113.82139257 14.02629514 113.83174986 12.05037854 113.84228516 10.07446289 C113.84332748 9.16490341 113.84436981 8.25534393 113.84544373 7.31822205 C113.88656698 1.11343302 113.88656698 1.11343302 115 0 C117.52541002 -0.09504251 120.02337126 -0.12557158 122.54907227 -0.11352539 C123.73435013 -0.11374443 123.73435013 -0.11374443 124.943573 -0.1139679 C127.56787822 -0.11326857 130.19211336 -0.10547527 132.81640625 -0.09765625 C134.63101665 -0.09579214 136.44562756 -0.0943682 138.26023865 -0.09336853 C143.0459023 -0.08954279 147.8315358 -0.07971204 152.6171875 -0.06866455 C157.49674064 -0.05845163 162.37629864 -0.05387117 167.25585938 -0.04882812 C176.83725286 -0.03808982 186.41862393 -0.02101273 196 0 C196.09393235 14.83084892 196.16421652 29.66167456 196.20724869 44.49275875 C196.22777088 51.38093518 196.25569017 58.26892553 196.30175781 65.15698242 C196.34627198 71.81600534 196.36920057 78.47479597 196.37950897 85.13397408 C196.38684638 87.66263414 196.40117307 90.19128479 196.42292023 92.71986198 C196.56072462 109.42105444 196.50537513 126.17593322 188.4375 141.3125 C188.10016846 141.9621875 187.76283691 142.611875 187.4152832 143.28125 C177.75203789 160.95416036 159.87184371 172.48302267 140.94921875 178.3203125 C106.34037477 188.03027712 65.36094355 185.80369695 33.75537109 168.05273438 C29.45308488 165.47255939 25.69563309 162.37217917 22 159 C21.37996094 158.47148437 20.75992188 157.94296875 20.12109375 157.3984375 C7.95548514 146.34869008 0.88751995 128.49698281 -0.18054581 112.25434494 C-0.24393325 109.27041714 -0.24769806 106.29263527 -0.22705078 103.30810547 C-0.22734283 102.18498459 -0.22763489 101.06186371 -0.22793579 99.90470886 C-0.22655241 96.22545402 -0.21103799 92.54640658 -0.1953125 88.8671875 C-0.19157885 86.30315257 -0.18873354 83.73911621 -0.18673706 81.17507935 C-0.1799043 75.136949 -0.16417246 69.09890645 -0.14403808 63.06081116 C-0.11939264 55.50409658 -0.10852085 47.94736981 -0.09765625 40.390625 C-0.07823896 26.92702634 -0.0381645 13.46358752 0 0 Z M18 33.4375 C12.99982184 40.6142263 11.93153911 47.33238356 13 56 C15.04074138 62.0969257 18.13687005 66.8316029 23 71 C23.99 70.505 23.99 70.505 25 70 C24.67773438 69.45085937 24.35546875 68.90171875 24.0234375 68.3359375 C22.14930847 64.0583453 22.46896643 59.57352659 23 55 C25.29796944 50.13891081 28.13891081 47.29796944 33 45 C39.14581059 44.18483287 44.84969145 44.23148155 50 48 C54.15908473 53.39556937 55.33867569 57.22648625 55 64 C54.4641037 66.39988345 53.76490828 68.6574684 53 71 C58.19678712 67.14620281 62.32996947 63.41331249 64 57 C64.75870154 49.85881954 65.36017314 42.1124524 61.46484375 35.77734375 C56.01239726 29.16170867 50.61784782 24.67727861 41.921875 23.62890625 C31.73507183 23.41563574 24.60775588 25.38854634 18 33.4375 Z M140.3125 30.25 C134.53771461 37.11731236 131.47699455 43.07759031 131.59765625 52.140625 C132.62072539 59.41136879 136.26069276 66.11126002 142.0625 70.625 C149.33905482 75.53555847 156.40145804 75.79760231 165 75 C168.03658602 74.08525204 170.41199342 72.81160461 173 71 C173.886875 70.443125 174.77375 69.88625 175.6875 69.3125 C181.19453917 63.80546083 183.66021295 57.41723163 184.25 49.75 C183.78525999 42.77889986 181.53852042 36.37456366 177 31 C165.47190871 22.08717443 151.86322633 20.57962447 140.3125 30.25 Z M34.4375 99.375 C33.46683594 100.00148438 32.49617187 100.62796875 31.49609375 101.2734375 C28.96998927 102.91048683 28.96998927 102.91048683 27 105 C27.3185177 107.10820797 27.3185177 107.10820797 28 109 C32.12973628 108.43260132 32.12973628 108.43260132 36 107 C36.0515625 107.53625 36.103125 108.0725 36.15625 108.625 C38.08746596 121.96794664 45.38112892 133.80825463 55 143 C55.61230469 143.63164062 56.22460938 144.26328125 56.85546875 144.9140625 C68.76713279 156.44475647 84.87256534 160.50167381 100.99511719 160.35180664 C118.57849098 159.84466143 133.08976367 152.31153111 145.21875 139.69140625 C153.26000058 130.2738647 158.41319479 119.07175765 161 107 C161.60328125 107.33773437 162.2065625 107.67546875 162.828125 108.0234375 C165.59892599 109.26930126 167.12984899 108.79726417 170 108 C169.4692334 104.12197951 167.90771262 102.682128 164.875 100.3125 C160.8106838 97.26914003 158.0445483 96.10733081 153 96 C152.67 97.32 152.34 98.64 152 100 C153.32 100.66 154.64 101.32 156 102 C150.78794396 117.80761732 139.58935419 130.20053521 125 138 C110.05277421 144.4817142 92.59504273 145.52057005 77.0703125 140.25390625 C60.16788024 133.35100452 48.49622629 121.54696956 41 105 C42.32 103.35 43.64 101.7 45 100 C44.34 98.68 43.68 97.36 43 96 C39.16303788 96 37.63021322 97.29187153 34.4375 99.375 Z " fill="#000000" transform="translate(688,164)"/>
<path d="M0 0 C5.46602787 2.3851758 8.73630845 6.55750754 11 12 C12.12559879 17.60841831 11.04708537 22.32535816 8.27734375 27.2734375 C5.60171781 30.89003281 2.17305926 32.60898025 -2 34 C-8.26518281 34.5309477 -12.89079945 33.8564115 -18 30 C-21.73684686 26.07314398 -23.30448373 22.28428336 -23.5 16.875 C-23.21085825 11.90632735 -22.1890375 8.14817547 -18.53515625 4.5625 C-12.535452 -0.60105965 -7.73511486 -0.6995058 0 0 Z " fill="#000000" transform="translate(852,204)"/>
</svg>
