<?xml version="1.0" encoding="UTF-8"?>
<svg version="1.1" xmlns="http://www.w3.org/2000/svg" width="1616" height="390">
<path d="M0 0 C533.28 0 1066.56 0 1616 0 C1616 128.7 1616 257.4 1616 390 C1082.72 390 549.44 390 0 390 C0 261.3 0 132.6 0 0 Z " fill="#FAFAFA" transform="translate(0,0)"/>
<path d="M0 0 C28.05 0 56.1 0 85 0 C85.33 38.28 85.66 76.56 86 116 C89.465 112.04 89.465 112.04 93 108 C94.3763974 106.54387942 95.76775587 105.10138951 97.1875 103.6875 C97.82042969 103.05199219 98.45335937 102.41648437 99.10546875 101.76171875 C103.05913212 98.08521941 107.03548129 96.01407521 112 94 C112.97195313 93.58234375 113.94390625 93.1646875 114.9453125 92.734375 C115.99460937 92.28578125 117.04390625 91.8371875 118.125 91.375 C119.11757813 90.94960937 120.11015625 90.52421875 121.1328125 90.0859375 C125.62096735 88.38606414 129.70791698 87.87296062 134.4921875 87.8671875 C135.52730469 87.86589844 136.56242188 87.86460937 137.62890625 87.86328125 C138.70011719 87.86714844 139.77132812 87.87101562 140.875 87.875 C141.93847656 87.87113281 143.00195312 87.86726563 144.09765625 87.86328125 C161.75449958 87.88521522 176.00290127 94.26452712 188.9375 106.25 C202.88582677 121.18535921 204.17625667 140.16189116 204.11352539 159.53979492 C204.11367142 160.74109039 204.11381744 161.94238586 204.1139679 163.18008423 C204.11339529 166.43761107 204.10841961 169.69509357 204.10139394 172.95261168 C204.09509413 176.37053083 204.0945514 179.78845107 204.09336853 183.20637512 C204.0902746 189.66234786 204.08208762 196.11830342 204.07201904 202.57426864 C204.05969417 210.65432683 204.05425994 218.73438787 204.04882812 226.81445312 C204.03912086 241.20964875 204.01908333 255.60480698 204 270 C175.95 270 147.9 270 119 270 C118.96261719 262.7296875 118.92523437 255.459375 118.88671875 247.96875 C118.85643484 243.35674734 118.82528413 238.74478307 118.79101562 234.1328125 C118.7367324 226.81610059 118.68562047 219.49946464 118.65356445 212.18261719 C118.62751266 206.28213429 118.58709635 200.38190706 118.53681374 194.48158264 C118.52015783 192.23302903 118.50863563 189.9844312 118.50238609 187.73582458 C118.49273139 184.58077332 118.46465466 181.42637427 118.43237305 178.27148438 C118.43380814 177.34647125 118.43524323 176.42145813 118.4367218 175.46841431 C118.34539064 169.13663389 117.5738062 163.27699463 113.52734375 158.125 C109.20138302 155.06387791 105.59845042 154.30919155 100.3046875 154.55859375 C97.08497215 155.1752511 95.28452589 156.71547411 93 159 C92.34 159 91.68 159 91 159 C86.28348707 173.21242563 85.67529638 186.80728608 85.5859375 201.640625 C85.56719512 203.61888407 85.5476195 205.59713541 85.5272522 207.57537842 C85.47624907 212.74387011 85.43645445 217.91238764 85.39910889 223.08099365 C85.35177413 229.30293728 85.29031453 235.52475596 85.23126221 241.74659729 C85.14343862 251.16434686 85.07339644 260.58207723 85 270 C56.95 270 28.9 270 0 270 C0 180.9 0 91.8 0 0 Z " fill="#030303" transform="translate(450,69)"/>
<path d="M0 0 C27.72 0 55.44 0 84 0 C84 51.48 84 102.96 84 156 C86.58853276 153.41146724 88.15464477 151.34481449 90 148.25 C90.495 147.43015625 90.99 146.6103125 91.5 145.765625 C92.85866756 143.26058169 93.9658554 140.73262076 95.0625 138.10595703 C97.15608608 133.40302122 99.61497912 128.87226818 102 124.3125 C102.53367187 123.28060547 103.06734375 122.24871094 103.6171875 121.18554688 C104.39449219 119.69571289 104.39449219 119.69571289 105.1875 118.17578125 C105.88939453 116.82867065 105.88939453 116.82867065 106.60546875 115.4543457 C107.9198775 113.14101393 109.39920515 111.11874866 111 109 C111.67349161 107.33607955 112.3409159 105.66967972 113 104 C113.66 103.34 114.32 102.68 115 102 C115.5702098 100.66587276 116.08730575 99.30834833 116.5625 97.9375 C117.90277778 94.09722222 117.90277778 94.09722222 119 93 C122.07454761 92.90467672 125.12659158 92.8744862 128.20141602 92.88647461 C129.65004028 92.88625557 129.65004028 92.88625557 131.12792969 92.8860321 C134.33661099 92.88673166 137.54523503 92.89452603 140.75390625 92.90234375 C142.97208118 92.90420778 145.19025652 92.90563175 147.40843201 92.90663147 C153.25940071 92.91045784 159.11034477 92.92028914 164.96130371 92.93133545 C170.92667304 92.94154701 176.89204633 92.94612854 182.85742188 92.95117188 C194.57162544 92.96191131 206.28581067 92.97898915 218 93 C216.65035952 95.74920166 215.2237157 98.25105051 213.4609375 100.7578125 C212.96698486 101.46075439 212.47303223 102.16369629 211.96411133 102.88793945 C211.17750122 103.99528442 211.17750122 103.99528442 210.375 105.125 C209.83447998 105.8883667 209.29395996 106.6517334 208.73706055 107.43823242 C205.27618481 112.29376635 201.69749396 117.01164139 197.91796875 121.625 C194.95670314 125.29190324 192.16758182 129.08439622 189.3515625 132.86328125 C186.9275255 136.09667279 184.47004438 139.30176194 182 142.5 C178.08771424 147.57237203 174.20292233 152.6632277 170.38671875 157.80859375 C168.60014382 160.19751637 166.79079005 162.55802444 164.95703125 164.91015625 C163.9294084 166.25239053 162.90206111 167.59483583 161.875 168.9375 C161.37685791 169.56446777 160.87871582 170.19143555 160.36547852 170.83740234 C158.38936759 173.44903055 157.03107229 175.30294503 156.8828125 178.62890625 C158.37374571 181.79322952 160.46419665 183.58678382 163 186 C165.16818716 188.62310653 167.20482634 191.34288322 169.25 194.0625 C169.82210205 194.81692383 170.3942041 195.57134766 170.98364258 196.34863281 C174.95115641 201.58666455 178.89083333 206.84568555 182.82421875 212.109375 C185.19367595 215.25730736 187.59271432 218.38097906 190 221.5 C194.29797515 227.07065655 198.53432017 232.68494338 202.74462891 238.32226562 C204.14303735 240.19116154 205.54583363 242.05671343 206.94921875 243.921875 C209.50111688 247.31409108 212.04748887 250.71037033 214.58837891 254.11083984 C215.49594465 255.32542713 216.40440009 256.53935039 217.31396484 257.75244141 C218.46437275 259.28951801 219.60746028 260.83206584 220.75 262.375 C221.38421875 263.22835938 222.0184375 264.08171875 222.671875 264.9609375 C224 267 224 267 224 269 C190.01 269 156.02 269 121 269 C118.36 263.72 115.72 258.44 113 253 C110.54310119 248.47762008 108.05030712 243.98451472 105.51953125 239.50390625 C105.05933594 238.68019531 104.59914063 237.85648438 104.125 237.0078125 C103.71507812 236.28223145 103.30515625 235.55665039 102.8828125 234.80908203 C102 233 102 233 102 231 C101.34 231 100.68 231 100 231 C99.35004703 229.58521865 98.70521278 228.16808513 98.0625 226.75 C97.70285156 225.96109375 97.34320313 225.1721875 96.97265625 224.359375 C96.09966721 222.24176302 95.48661492 220.23330638 95 218 C94.34 218 93.68 218 93 218 C91 215 91 215 91 211 C90.34 211 89.68 211 89 211 C88.731875 210.195625 88.46375 209.39125 88.1875 208.5625 C87.795625 207.716875 87.40375 206.87125 87 206 C86.01 205.67 85.02 205.34 84 205 C84 225.79 84 246.58 84 268 C56.28 268 28.56 268 0 268 C0 179.56 0 91.12 0 0 Z " fill="#010101" transform="translate(204,70)"/>
<path d="M0 0 C26.4 0 52.8 0 80 0 C80 38.61 80 77.22 80 117 C80.66 117 81.32 117 82 117 C82.22816406 116.28585938 82.45632813 115.57171875 82.69140625 114.8359375 C88.33887729 102.59694057 103.30984849 94.54216948 115.28076172 90.04736328 C121.26726409 88.36152272 127.0902763 88.25563232 133.25585938 88.34814453 C135.36772332 88.37490778 137.47423565 88.34828285 139.5859375 88.31640625 C154.47577445 88.27700455 166.39334564 92.39040202 178 102 C178.58136719 102.42023438 179.16273438 102.84046875 179.76171875 103.2734375 C191.96320994 112.30446248 195.6194638 127.85766368 198 142 C198.36285417 146.45533191 198.38260816 150.87124953 198.34057617 155.33935547 C198.34101425 156.58985687 198.34145233 157.84035828 198.34190369 159.12875366 C198.34019044 162.50820657 198.32530476 165.88708711 198.30418181 169.26643896 C198.28523307 172.8164531 198.28365042 176.36647751 198.28010559 179.91653442 C198.27083791 186.61684083 198.24629691 193.31699772 198.21605712 200.01723874 C198.1760252 209.08696139 198.16001551 218.15672589 198.14255047 227.22651482 C198.11447093 241.48445488 198.05466683 255.74207963 198 270 C170.28 270 142.56 270 114 270 C113.96261719 262.63429688 113.92523437 255.26859375 113.88671875 247.6796875 C113.85644231 243.01299744 113.8252965 238.34634567 113.79101562 233.6796875 C113.73668821 226.27280602 113.68557815 218.86600029 113.65356445 211.45898438 C113.62755254 205.48718908 113.58716453 199.51564811 113.53681374 193.54401016 C113.52013084 191.26589242 113.50862544 188.98773068 113.50238609 186.70956039 C113.49276076 183.51817931 113.46471914 180.32745096 113.43237305 177.13623047 C113.43380814 176.19467606 113.43524323 175.25312164 113.4367218 174.28303528 C113.36163665 169.04362981 112.72998466 165.61766811 110 161 C110 160.34 110 159.68 110 159 C109.4225 158.71125 108.845 158.4225 108.25 158.125 C106 157 106 157 104.25 155.875 C100.1720957 154.28914833 96.11003189 154.22548433 92.03125 155.72265625 C88.01910852 157.82223029 85.68684838 159.82726979 84 164 C81.02146655 174.63806523 81.64739384 185.91456415 81.5859375 196.85546875 C81.56720217 198.9696781 81.54762704 201.08388016 81.5272522 203.19807434 C81.47617479 208.72990599 81.43641927 214.26176182 81.39910889 219.79370117 C81.35183356 226.44863141 81.29034129 233.10344398 81.23126221 239.75827789 C81.14334774 249.83880379 81.07337027 259.91931054 81 270 C54.27 270 27.54 270 0 270 C0 180.9 0 91.8 0 0 Z " fill="#020202" transform="translate(1098,69)"/>
<path d="M0 0 C27.06 0 54.12 0 82 0 C82.02578125 7.04214844 82.0515625 14.08429688 82.078125 21.33984375 C82.10330195 25.81058291 82.12964148 30.28125499 82.16015625 34.75195312 C82.20844269 41.84253159 82.25250579 48.93295471 82.27099609 56.02368164 C82.28617928 61.74267945 82.32065508 67.46126995 82.36830902 73.18008614 C82.38310555 75.35803238 82.39104002 77.53603678 82.39188385 79.71403313 C82.39426039 82.77325349 82.42139637 85.8313545 82.45410156 88.89038086 C82.4490712 89.78374649 82.44404083 90.67711212 82.43885803 91.59754944 C82.54267945 97.90596877 84.20054467 102.40292898 87 108 C87.33 108.99 87.66 109.98 88 111 C91.31804453 112.33502498 94.90041198 112.23480674 98.4375 112.3125 C100.10619141 112.36857422 100.10619141 112.36857422 101.80859375 112.42578125 C106.53006275 111.79586678 108.70603656 109.61565443 111.61531067 105.98310852 C113.62402192 101.655637 113.43953668 97.69526139 113.43237305 92.97729492 C113.4425647 91.97194702 113.45275635 90.96659912 113.46325684 89.93078613 C113.49340595 86.61395712 113.50265591 83.29741684 113.51171875 79.98046875 C113.52856397 77.67831969 113.546714 75.37617983 113.56611633 73.0740509 C113.61363923 67.01932654 113.64343397 60.96463951 113.66955566 54.90979004 C113.7045892 47.64259602 113.76160853 40.37554537 113.81494904 33.1084671 C113.89348973 22.07232946 113.94407566 11.03637984 114 0 C141.06 0 168.12 0 196 0 C196.08021762 26.15094369 196.08021762 26.15094369 196.09765625 37.4140625 C196.10954947 45.05894799 196.12352307 52.70378497 196.15087891 60.34863281 C196.17282537 66.52136004 196.18461395 72.69403513 196.18975449 78.8667984 C196.19341153 81.20595366 196.20055098 83.54510651 196.21146011 85.8842392 C196.26103357 96.96822356 196.20746221 107.99234585 195.17529297 119.03613281 C195.10596117 119.81649273 195.03662937 120.59685265 194.96519661 121.40085983 C194.37436647 126.88980317 192.92154293 131.83277015 191 137 C190.34 137 189.68 137 189 137 C188.79375 137.804375 188.5875 138.60875 188.375 139.4375 C183.29526729 152.59862565 172.90238659 162.04454284 161 169 C159.948125 169.7425 158.89625 170.485 157.8125 171.25 C154.34939794 173.40481906 150.84876888 174.73066321 147 176 C145.80761719 176.40476562 144.61523438 176.80953125 143.38671875 177.2265625 C142.02916585 177.67345778 140.67108482 178.11875171 139.3125 178.5625 C138.69004395 178.77253662 138.06758789 178.98257324 137.42626953 179.19897461 C125.30569582 183.06051793 112.96755132 183.37381113 100.375 183.3125 C99.57941681 183.31034485 98.78383362 183.3081897 97.96414185 183.30596924 C86.10624208 183.25441639 74.54734284 182.95588606 63 180 C61.82147461 179.70198486 61.82147461 179.70198486 60.61914062 179.39794922 C40.54500594 174.11840434 22.37964057 163.97815452 11 146 C2.87830623 131.43520888 -0.17136443 119.1419076 -0.11352539 102.51342773 C-0.11367142 101.40020645 -0.11381744 100.28698517 -0.1139679 99.14002991 C-0.11327539 95.48786418 -0.10551416 91.83575048 -0.09765625 88.18359375 C-0.09578972 85.64054899 -0.09436692 83.09750387 -0.09336853 80.55445862 C-0.08995024 74.56236638 -0.0820817 68.57029622 -0.07201904 62.5782128 C-0.05970319 55.08014021 -0.05426194 47.58206457 -0.04882812 40.08398438 C-0.03911515 26.72264191 -0.01907854 13.36133965 0 0 Z " fill="#030303" transform="translate(688,164)"/>
<path d="M0 0 C2.94214338 0.02901666 5.88248059 0.02054805 8.82470703 0.00756836 C20.06854948 0.02067169 30.48421383 0.92257476 41.44580078 3.46655273 C43.2972168 3.8628186 43.2972168 3.8628186 45.18603516 4.26708984 C51.17755795 5.55271842 56.78363662 7.15113203 62.44580078 9.46655273 C64.7779709 10.36540997 67.11138695 11.26103882 69.44580078 12.15405273 C71.44592787 12.92455624 73.44597133 13.69527705 75.44580078 14.46655273 C74.79743 18.92563101 73.85592398 21.66597384 71.44580078 25.46655273 C69.1986895 30.54945515 67.11130923 35.69771555 65.00830078 40.84155273 C62.01231871 48.14204336 59.00787095 55.42018686 55.44580078 62.46655273 C49.89747911 62.022687 46.97728583 60.5819487 42.44580078 57.46655273 C40.12732204 56.74993203 37.79260375 56.08413246 35.44580078 55.46655273 C34.29080078 54.95092773 33.13580078 54.43530273 31.94580078 53.90405273 C25.77002536 51.36757354 19.41044621 51.26312267 12.82080078 51.21655273 C12.08345703 51.19592773 11.34611328 51.17530273 10.58642578 51.15405273 C6.03652864 51.12143698 2.99706262 51.52781474 -0.55419922 54.46655273 C-1.38769873 57.42315146 -1.38769873 57.42315146 -0.55419922 60.46655273 C6.90136183 67.49608172 17.43583492 68.57213611 27.19580078 69.96655273 C32.94749937 70.79278525 38.04403652 71.62673493 43.24658203 74.34936523 C46.24953765 75.87484536 49.36031222 77.02213907 52.50830078 78.21655273 C53.63365234 78.64452148 54.75900391 79.07249023 55.91845703 79.51342773 C56.75248047 79.82795898 57.58650391 80.14249023 58.44580078 80.46655273 C58.44580078 81.12655273 58.44580078 81.78655273 58.44580078 82.46655273 C59.16896484 82.7153418 59.89212891 82.96413086 60.63720703 83.22045898 C69.68719909 87.23568495 75.851758 95.48144579 79.44580078 104.46655273 C83.74310322 117.87997734 82.6011206 133.56901426 77.44580078 146.46655273 C77.13771484 147.24256836 76.82962891 148.01858398 76.51220703 148.81811523 C75.86046491 150.38354368 75.16092159 151.92904299 74.44580078 153.46655273 C73.78580078 153.46655273 73.12580078 153.46655273 72.44580078 153.46655273 C72.20474609 154.18198242 71.96369141 154.89741211 71.71533203 155.63452148 C67.0740612 165.98812565 57.06635889 172.32199045 47.44580078 177.46655273 C46.48544922 178.01053711 45.52509766 178.55452148 44.53564453 179.11499023 C19.01453038 192.36310482 -18.02311789 192.39193204 -45.55419922 185.46655273 C-46.52067383 185.2301709 -47.48714844 184.99378906 -48.48291016 184.75024414 C-64.07950401 180.85945526 -78.20646534 175.69484962 -92.55419922 168.46655273 C-91.89662644 164.31997617 -90.54501622 160.80774019 -88.86669922 156.96655273 C-88.60195801 156.35706787 -88.3372168 155.74758301 -88.06445312 155.11962891 C-86.25261323 150.97422911 -84.35203494 146.87425249 -82.42919922 142.77905273 C-80.18148482 137.96836011 -78.31209728 133.13293747 -76.56591797 128.12280273 C-74.89629568 123.73923842 -72.74632378 119.6082307 -70.55419922 115.46655273 C-67.56125426 116.89350693 -64.7317923 118.53646182 -61.88500977 120.23339844 C-54.7002686 124.48194827 -47.46990657 127.75779194 -39.55419922 130.46655273 C-38.87921387 130.72766846 -38.20422852 130.98878418 -37.50878906 131.2578125 C-31.82299256 133.3618433 -26.84101738 133.89940397 -20.80419922 133.77905273 C-19.98048828 133.78227539 -19.15677734 133.78549805 -18.30810547 133.78881836 C-12.87729658 133.74071941 -8.57286013 133.48521365 -4.55419922 129.46655273 C-4.15655659 127.4783396 -3.81644573 125.47710934 -3.55419922 123.46655273 C-4.54419922 123.09530273 -4.54419922 123.09530273 -5.55419922 122.71655273 C-8.55419922 121.46655273 -8.55419922 121.46655273 -11.80419922 119.52905273 C-16.58646288 117.08378207 -21.66598598 116.44722648 -26.90600586 115.61132812 C-36.23305796 114.09633079 -45.12771873 111.8496817 -53.55419922 107.46655273 C-54.36501953 107.10174805 -55.17583984 106.73694336 -56.01123047 106.36108398 C-64.56464859 102.43190186 -71.97362693 96.83107604 -76.55419922 88.46655273 C-76.55419922 87.80655273 -76.55419922 87.14655273 -76.55419922 86.46655273 C-77.21419922 86.46655273 -77.87419922 86.46655273 -78.55419922 86.46655273 C-82.34665686 77.95045366 -82.96459975 69.99219529 -82.99169922 60.77905273 C-83.00136719 59.72274658 -83.01103516 58.66644043 -83.02099609 57.578125 C-82.86477999 42.88347336 -77.30963121 32.28231847 -67.24169922 21.65405273 C-58.05909376 13.00241426 -47.50153913 8.10463532 -35.55419922 4.46655273 C-34.4673584 4.12019775 -33.38051758 3.77384277 -32.26074219 3.41699219 C-21.46492784 0.3112808 -11.19470292 -0.12020282 0 0 Z " fill="#020202" transform="translate(994.55419921875,157.533447265625)"/>
<path d="M0 0 C27.39 0 54.78 0 83 0 C83 58.08 83 116.16 83 176 C55.61 176 28.22 176 0 176 C0 117.92 0 59.84 0 0 Z " fill="#000000" transform="translate(1334,163)"/>
<path d="M0 0 C1.11310547 0.00902344 2.22621094 0.01804688 3.37304688 0.02734375 C6.10309023 0.0507776 8.8326801 0.083586 11.5625 0.125 C11.5625 0.785 11.5625 1.445 11.5625 2.125 C12.8309375 2.2796875 12.8309375 2.2796875 14.125 2.4375 C26.6513109 4.94276218 36.7948871 13.69673234 43.875 24.04296875 C49.95572481 34.17005824 50.83290328 47.93872289 48.01171875 59.35351562 C43.84922544 71.10848975 34.50307333 81.31768146 23.5625 87.125 C10.80532648 92.9859736 -1.99702271 95.55650188 -15.9765625 92.30078125 C-19.40282462 90.94139407 -21.8253735 89.7371265 -24.4375 87.125 C-23.68726563 86.95484375 -22.93703125 86.7846875 -22.1640625 86.609375 C-8.16839092 83.2955384 4.92968901 78.47310563 13.4140625 66.08984375 C15.11095104 63.1866637 16.38192227 60.27320729 17.5625 57.125 C16.799375 58.135625 16.03625 59.14625 15.25 60.1875 C6.92395264 69.8621325 -7.87718392 77.11253226 -20.57397461 78.32983398 C-22.74066202 78.42640971 -24.89381403 78.44725129 -27.0625 78.4375 C-28.14917969 78.46166992 -28.14917969 78.46166992 -29.2578125 78.48632812 C-35.33964836 78.49183703 -39.40409921 76.96002023 -44 72.8125 C-52.43902347 61.63353384 -52.29330693 48.65448174 -51.21875 35.43359375 C-49.41000272 23.94393774 -40.3562662 14.8170046 -31.4375 8.125 C-20.82008423 1.72273806 -12.22625092 -0.18865432 0 0 Z " fill="#030303" transform="translate(1377.4375,61.875)"/>
<path d="M0 0 C0.70125 0.2475 1.4025 0.495 2.125 0.75 C1.795 2.4 1.465 4.05 1.125 5.75 C0.465 5.75 -0.195 5.75 -0.875 5.75 C0.39222712 10.98564888 2.26874018 15.17659843 5.25 19.6875 C5.65105957 20.29795166 6.05211914 20.90840332 6.46533203 21.53735352 C14.8272708 33.95161645 25.90537021 41.28234605 40.125 45.75 C41.115 46.08 42.105 46.41 43.125 46.75 C46.97458777 47.01008066 50.83006806 46.98148803 54.6875 47 C55.73486328 47.020625 56.78222656 47.04125 57.86132812 47.0625 C72.86252528 47.13708644 87.18985406 41.09084453 98.125 30.75 C104.52782578 23.8136054 112.21526497 15.27697361 114.125 5.75 C113.135 5.42 112.145 5.09 111.125 4.75 C111.125 3.1 111.125 1.45 111.125 -0.25 C115.63396642 -0.68713499 117.71950629 0.46150996 121.3125 3.125 C122.60220703 4.06472656 122.60220703 4.06472656 123.91796875 5.0234375 C126.125 6.75 126.125 6.75 128.125 8.75 C127.75 11.375 127.75 11.375 127.125 13.75 C124.36223823 13.22731534 121.7989124 12.64130413 119.125 11.75 C118.94066406 12.51441406 118.75632812 13.27882813 118.56640625 14.06640625 C113.99908738 30.93503727 104.03697679 45.94962134 88.9375 55.1875 C87.33889283 56.05202676 85.73486042 56.90661349 84.125 57.75 C83.35285156 58.22179687 82.58070313 58.69359375 81.78515625 59.1796875 C81.03105469 59.63601563 80.27695312 60.09234375 79.5 60.5625 C78.84773437 60.96082031 78.19546875 61.35914063 77.5234375 61.76953125 C65.72928916 66.59091762 47.39540943 65.07211778 35.3671875 61.69921875 C32.95538194 60.67819305 31.17554092 59.36425562 29.125 57.75 C28.3825 57.481875 27.64 57.21375 26.875 56.9375 C11.12458764 50.13618557 1.81051979 34.01875324 -5.0625 19.1875 C-5.93629212 16.56612364 -6.0318157 14.49427476 -5.875 11.75 C-6.865 12.245 -6.865 12.245 -7.875 12.75 C-10.2079866 12.79022391 -12.54206666 12.79320247 -14.875 12.75 C-14.59388975 9.376677 -14.1906078 8.04757307 -11.6875 5.6875 C-10.759375 5.048125 -9.83125 4.40875 -8.875 3.75 C-7.885 2.986875 -6.895 2.22375 -5.875 1.4375 C-2.875 -0.25 -2.875 -0.25 0 0 Z " fill="#EFEFEF" transform="translate(729.875,260.25)"/>
<path d="M0 0 C6.01601489 3.58096124 9.82262353 10.46787058 12 17 C13.19840042 25.84389169 11.04668021 32.69138278 6 40 C0.34383452 45.70026813 -5.66032119 48.28468697 -13.6875 48.4375 C-21.38943575 48.30039748 -27.37975643 46.74322425 -32.83984375 41.09765625 C-34.38311801 39.13177388 -35.7056513 37.13588894 -37 35 C-37.61875 34.113125 -38.2375 33.22625 -38.875 32.3125 C-41.05194652 25.90260191 -41.15776292 19.34182117 -38.93359375 12.921875 C-35.35236687 5.77893746 -30.81012058 1.31716772 -23.6484375 -2.1328125 C-15.85203348 -4.68561736 -7.22391356 -3.61195678 0 0 Z " fill="#F5F5F3" transform="translate(860,191)"/>
<path d="M0 0 C5.99528286 4.17111516 10.30192866 9.35574399 12.10546875 16.46484375 C12.90268105 24.16843208 13.42658213 31.49857252 8.55078125 37.87890625 C6.46335392 40.16943462 4.39486911 42.37167771 2.10546875 44.46484375 C2.10546875 41.46484375 2.10546875 41.46484375 3.10546875 38.46484375 C3.93826814 32.43299676 3.14670326 28.10216986 -0.4296875 23.12890625 C-3.46607767 19.67956701 -6.19742469 18.69411859 -10.69921875 18.0859375 C-15.92342243 17.77978093 -19.84597255 17.75749936 -24.01953125 21.15234375 C-28.72326066 26.0849651 -29.21667362 30.43689461 -29.09765625 37.08203125 C-28.86296341 39.83515877 -28.19517347 42.02613959 -26.89453125 44.46484375 C-30.20139654 43.06908892 -31.91028451 41.54013445 -34.01953125 38.65234375 C-34.51710938 37.98589844 -35.0146875 37.31945312 -35.52734375 36.6328125 C-39.58185956 30.20350887 -39.72354736 23.89144641 -38.89453125 16.46484375 C-36.52334846 8.71615714 -32.07054782 3.41136401 -25.08984375 -0.5625 C-17.24593014 -4.09388849 -7.64196015 -3.91145865 0 0 Z " fill="#F9F8F6" transform="translate(739.89453125,190.53515625)"/>
<path d="M0 0 C27.39 0 54.78 0 83 0 C83 58.08 83 116.16 83 176 C55.61 176 28.22 176 0 176 C0 117.92 0 59.84 0 0 Z M2 1 C2 58.09 2 115.18 2 174 C28.07 174 54.14 174 81 174 C81 116.91 81 59.82 81 1 C54.93 1 28.86 1 2 1 Z " fill="#494949" transform="translate(1334,163)"/>
<path d="M0 0 C5.46341509 1.88736158 8.20648895 4.93554767 11.0859375 9.85546875 C12.76261231 13.78920581 12.53090226 17.81250842 12 22 C9.60760989 26.87679522 6.28431045 29.80955604 2 33 C-2.78207174 34.59402391 -7.43559362 34.96277713 -12.2265625 33.1640625 C-17.4279378 30.26142235 -20.31529698 26.72163289 -22 21 C-22.92306058 15.44041673 -21.76133383 10.87835644 -19 6 C-13.09892986 -0.08990439 -8.19423569 -0.63745822 0 0 Z " fill="#020202" transform="translate(851,204)"/>
<path d="M0 0 C28.38 0 56.76 0 86 0 C86 51.81 86 103.62 86 157 C85.67 157 85.34 157 85 157 C85 105.52 85 54.04 85 1 C57.28 1 29.56 1 1 1 C1 89.44 1 177.88 1 269 C28.72 269 56.44 269 85 269 C85 248.21 85 227.42 85 206 C86.32 206.33 87.64 206.66 89 207 C89 207.99 89 208.98 89 210 C88.34 209.67 87.68 209.34 87 209 C86.67 229.13 86.34 249.26 86 270 C57.62 270 29.24 270 0 270 C0 180.9 0 91.8 0 0 Z " fill="#878686" transform="translate(203,69)"/>
<path d="M0 0 C1.70884005 1.62339805 3.37446717 3.29319053 5 5 C5 5.66 5 6.32 5 7 C-28.99 7 -62.98 7 -98 7 C-98.33 6.01 -98.66 5.02 -99 4 C-49.005 4.495 -49.005 4.495 2 5 C1.01 2.525 1.01 2.525 0 0 Z " fill="#3E3E3E" transform="translate(423,332)"/>
<path d="M0 0 C4.59713843 2.09869363 8.12412835 4.15245049 10 9 C10.48459952 14.23367486 9.82735806 17.55700877 7 22 C5.69384574 23.03524819 4.36379611 24.04196141 3 25 C3.06960938 23.93072266 3.06960938 23.93072266 3.140625 22.83984375 C3.38974698 16.22921419 2.98233418 12.34770589 -1 7 C-4.48804095 4.67463937 -5.90140754 4.66542102 -10 5 C-12.30230766 5.89831016 -12.30230766 5.89831016 -14 7 C-12.98929671 4.3354186 -12.0600516 3.04804128 -9.8125 1.25 C-6.14931352 -0.37808288 -3.9873576 -0.54065866 0 0 Z " fill="#ECEBE9" transform="translate(1365,80)"/>
<path d="M0 0 C4.50896642 -0.43713499 6.59450629 0.71150996 10.1875 3.375 C11.04730469 4.00148438 11.90710938 4.62796875 12.79296875 5.2734375 C15 7 15 7 17 9 C16.625 11.625 16.625 11.625 16 14 C13.23723823 13.47731534 10.6739124 12.89130413 8 12 C7.01 13.485 7.01 13.485 6 15 C5.67 13.35 5.34 11.7 5 10 C4.01 10.66 3.02 11.32 2 12 C2.33 10.02 2.66 8.04 3 6 C2.01 5.67 1.02 5.34 0 5 C0 3.35 0 1.7 0 0 Z " fill="#DDDCDB" transform="translate(841,260)"/>
<path d="M0 0 C1.32 0.33 2.64 0.66 4 1 C4 1.99 4 2.98 4 4 C3.34 3.67 2.68 3.34 2 3 C1.67 23.13 1.34 43.26 1 64 C0.67 64 0.34 64 0 64 C0 42.88 0 21.76 0 0 Z " fill="#A8A8A8" transform="translate(288,275)"/>
<path d="M0 0 C0.66 0.33 1.32 0.66 2 1 C-6.27906977 10.58139535 -6.27906977 10.58139535 -9 13 C-9.66 13 -10.32 13 -11 13 C-9.46356148 9.31930113 -7.21849055 7.01224796 -4.375 4.25 C-3.55773438 3.45078125 -2.74046875 2.6515625 -1.8984375 1.828125 C-0.95871094 0.92320312 -0.95871094 0.92320312 0 0 Z " fill="#37393B" transform="translate(1193,170)"/>
<path d="M0 0 C-1.47721422 3.45201639 -3.43794001 5.64961936 -6.125 8.25 C-6.84945313 8.95640625 -7.57390625 9.6628125 -8.3203125 10.390625 C-8.87460938 10.92171875 -9.42890625 11.4528125 -10 12 C-10 8.07290865 -8.72099538 7.1810287 -6.125 4.3125 C-5.04605469 3.10013672 -5.04605469 3.10013672 -3.9453125 1.86328125 C-2 0 -2 0 0 0 Z " fill="#3A3B3D" transform="translate(1343,74)"/>
</svg>
